<?xml version="1.0" encoding="UTF-8"?>
<svg id="Layer_2" data-name="Layer 2" xmlns="http://www.w3.org/2000/svg" viewBox="0 0 1212.48 213.04">
  <defs>
    <style>
      .cls-1 {
        fill: #fff;
      }
    </style>
  </defs>
  <g id="Word_Logo" data-name="Word Logo">
    <g id="Word_2" data-name="Word 2">
      <path class="cls-1" d="M1.27,210.81c-.68-.68-1.02-2.12-1.02-4.32,0-3.39.34-5.09,1.02-5.09,1.36,0,3.31-.25,5.85-.76s4.92-1.23,7.12-2.16c2.2-.93,3.47-1.82,3.82-2.67,1.02-3.9,1.53-11.36,1.53-22.39v-96.16c0-9.5-.51-16.11-1.53-19.84-.34-1.02-1.65-2.07-3.94-3.18-2.29-1.1-4.71-2.04-7.25-2.8s-4.5-1.14-5.85-1.14c-.68,0-1.02-1.53-1.02-4.58,0-2.71.25-4.32.76-4.83,6.78.34,13.27.64,19.46.89,6.19.25,12.17.38,17.93.38,7.46,0,20.61-.25,39.43-.76,9.5-.17,17.81-.29,24.93-.38,7.12-.08,13.06-.13,17.81-.13.17.85.85,4.41,2.04,10.68,1.18,6.28,2.97,15.26,5.34,26.97-.85.85-2.8,1.27-5.85,1.27-1.87,0-3.05-.59-3.56-1.78-2.04-4.41-5.05-8.35-9.03-11.83-3.99-3.47-8.31-6.27-12.97-8.39-4.67-2.12-9.2-3.18-13.61-3.18h-9.67c-10.86,0-16.37,1.11-16.54,3.31-.34,2.04-.64,4.71-.89,8.01s-.38,7.25-.38,11.83v39.18c0,1.02,3.64,1.53,10.94,1.53h13.48c10.68,0,16.45-.34,17.3-1.02.85-.85,1.53-3.31,2.04-7.38.34-2.71.85-5.17,1.53-7.38.17-1.18,1.44-1.78,3.82-1.78,2.88,0,4.75.43,5.6,1.27v48.08c-.68.68-2.46,1.02-5.34,1.02-2.21,0-3.56-.67-4.07-2.04-2.04-6.61-3.39-10.68-4.07-12.21-.68-1.18-1.14-1.74-1.4-1.65-.25.09-.81-.21-1.65-.89-2.38-1.36-8.99-2.04-19.84-2.04-12.21,0-18.32.76-18.32,2.29v39.18c0,7.97.68,13.99,2.04,18.06.68,2.72,6.44,4.07,17.3,4.07h6.61c10.51,0,20.01-2.2,28.49-6.61,2.88-1.53,6.15-4.41,9.79-8.65,3.64-4.24,6.49-8.99,8.52-14.25.34-1.02,1.53-1.53,3.56-1.53,4.07,0,6.61.51,7.63,1.53-8.48,23.4-13.06,37.99-13.74,43.75-4.24,0-9.79-.04-16.66-.13-6.87-.09-15.05-.22-24.55-.38-9.33-.17-17.81-.38-25.44-.64-7.63-.25-14.42-.21-20.35.13l-37.14,1.53Z"/>
      <g id="Logo">
        <path class="cls-1" d="M258.99,167.14c36.21,0,68.53,16.65,89.74,42.7l20.72-137.33-58.8,43.32L258.82,0h0s0,0,0,0h0s-51.83,115.83-51.83,115.83l-58.8-43.32,20.77,137.68c21.21-26.25,53.65-43.05,90.03-43.05Z"/>
      </g>
      <path class="cls-1" d="M384.13,210.81c-.68-.68-1.02-2.12-1.02-4.32,0-3.39.34-5.09,1.02-5.09,1.36,0,3.31-.25,5.85-.76s4.92-1.23,7.12-2.16c2.2-.93,3.47-1.82,3.82-2.67,1.02-3.9,1.53-11.36,1.53-22.39v-96.16c0-9.5-.51-16.11-1.53-19.84-.34-1.02-1.65-2.07-3.94-3.18-2.29-1.1-4.71-2.04-7.25-2.8s-4.5-1.14-5.85-1.14c-.68,0-1.02-1.53-1.02-4.58,0-2.71.25-4.32.76-4.83,7.63.34,14.58.64,20.86.89,6.27.25,11.78.38,16.54.38,2.37,0,4.96-.04,7.76-.13,2.8-.08,5.64-.21,8.52-.38,2.88-.17,5.68-.25,8.39-.25h7.89c10.18,0,19.59,1.36,28.24,4.07,5.93,1.7,11.4,4.54,16.41,8.52,5,3.99,9.03,8.82,12.08,14.5,3.05,5.68,4.58,12.17,4.58,19.46,0,9.16-2.42,17.55-7.25,25.18-4.83,7.63-11.36,13.78-19.59,18.44-8.23,4.67-17.43,7-27.6,7-3.39,0-6.74-.51-10.05-1.53s-5.56-2.37-6.74-4.07c-.68-1.02-1.1-2.88-1.27-5.6-.17-2.71.17-4.07,1.02-4.07,2.37,1.36,6.19,2.04,11.45,2.04,14.25,0,21.37-11.53,21.37-34.6s-7.8-34.85-23.4-34.85c-5.94,0-9.84.68-11.7,2.04-2.04,1.53-3.05,9.84-3.05,24.93v91.07c0,8.99.59,15.94,1.78,20.86.34,1.36,1.78,2.54,4.32,3.56s5.34,1.78,8.39,2.29,5.43.76,7.12.76c.68,0,1.02,1.61,1.02,4.83,0,1.7-.17,3.22-.51,4.58-20.35-1.02-33.32-1.53-38.92-1.53l-37.14,1.53Z"/>
      <path class="cls-1" d="M553.55,187.15c-16.11-16.96-24.17-37.22-24.17-60.8,0-11.87,2.12-23.02,6.36-33.45,4.24-10.43,10.13-19.59,17.68-27.47,7.54-7.89,16.24-14.07,26.07-18.57,9.83-4.49,20.35-6.74,31.54-6.74s21.75,2.25,31.67,6.74c9.92,4.5,18.61,10.68,26.07,18.57,7.46,7.89,13.36,17.04,17.68,27.47,4.32,10.43,6.49,21.58,6.49,33.45,0,23.57-8.06,43.84-24.17,60.8-11.03,11.54-23.4,19.21-37.14,23.02s-27.43,3.82-41.08,0c-13.65-3.82-25.99-11.49-37.01-23.02ZM615.11,198.09c8.48,0,15.56-2.96,21.24-8.9,5.68-5.93,9.92-13.95,12.72-24.04,2.8-10.09,4.2-21.41,4.2-33.96,0-9.32-.72-18.23-2.16-26.71-1.44-8.48-3.78-16.62-7-24.42-3.22-7.97-7.97-14.25-14.25-18.82-6.28-4.58-13.82-6.87-22.64-6.87s-16.45,3.22-22.39,9.67c-5.94,6.61-10.05,14.67-12.34,24.17-2.29,9.5-3.43,20.35-3.43,32.56,0,17.3,3.31,34,9.92,50.11,3.39,8.14,8.18,14.72,14.37,19.72,6.19,5,13.44,7.5,21.75,7.5Z"/>
      <path class="cls-1" d="M862.88,211.58c-8.31,0-15.9-.81-22.77-2.42s-12.34-3.43-16.41-5.47c-4.24-2.04-8.39-5.09-12.47-9.16-2.04-2.04-3.9-3.98-5.6-5.85-1.7-1.86-3.52-4.2-5.47-7-1.95-2.8-4.45-6.53-7.5-11.19-3.05-4.66-7.04-10.89-11.96-18.7-6.61-10-11.03-15.43-13.23-16.28-.34-.17-1.27-.25-2.8-.25s-2.29,1.36-2.29,4.07v34.6c0,8.99.59,15.94,1.78,20.86.34,1.36,1.78,2.54,4.32,3.56s5.34,1.78,8.39,2.29,5.43.76,7.12.76c.68,0,1.02,1.61,1.02,4.83,0,1.7-.17,3.22-.51,4.58-10.18-.51-18.49-.93-24.93-1.27-6.45-.34-11.11-.42-13.99-.25l-37.14,1.53c-.68-.68-1.02-2.12-1.02-4.32,0-3.39.34-5.09,1.02-5.09,1.36,0,3.31-.25,5.85-.76s4.92-1.23,7.12-2.16c2.2-.93,3.47-1.82,3.82-2.67,1.02-3.9,1.53-11.36,1.53-22.39v-96.16c0-9.5-.51-16.11-1.53-19.84-.34-1.02-1.65-2.07-3.94-3.18-2.29-1.1-4.71-2.04-7.25-2.8s-4.5-1.14-5.85-1.14c-.68,0-1.02-1.53-1.02-4.58,0-2.71.25-4.32.76-4.83,7.8.34,14.79.64,20.99.89,6.19.25,11.66.38,16.41.38,8.14-.17,14.5-.25,19.08-.25h16.54c6.78,0,13.61.85,20.48,2.54,6.87,1.7,13.18,4.29,18.95,7.76,5.76,3.48,10.39,7.89,13.86,13.23,3.47,5.34,5.21,11.75,5.21,19.21s-1.53,14.42-4.58,20.86c-3.05,6.45-7,11.87-11.83,16.28-4.83,4.41-9.79,7.47-14.88,9.16-1.36.51-1.61,1.44-.76,2.8,3.73,6.28,6.61,11.03,8.65,14.25,2.04,3.22,3.77,5.81,5.21,7.76,1.44,1.95,3.18,4.32,5.21,7.12s4.92,7,8.65,12.59c2.88,4.07,6.32,8.1,10.3,12.08,3.98,3.99,8.31,7.29,12.97,9.92,4.66,2.63,12.9-1.22,15.45-3.94,0,0-1.08,10.09-1.08,12.47,0,2.04,41.95,3.48,41.28,4.83-1.19.17-44.8.55-46.24.64-1.44.08-3.1.13-4.96.13ZM773.08,121.27h6.87c6.61,0,11.74-2.88,15.39-8.65,3.64-5.76,5.47-13.39,5.47-22.89,0-22.55-7.89-33.83-23.66-33.83-5.94,0-9.84.68-11.7,2.04-2.04,1.53-3.05,9.84-3.05,24.93v27.47c0,4.75.97,7.76,2.93,9.03,1.95,1.27,4.53,1.91,7.76,1.91Z"/>
      <path class="cls-1" d="M855.32,210.81c-.68-.68-1.02-1.95-1.02-3.82,0-3.56.17-5.34.51-5.34,1.36,0,3.39-.42,6.11-1.27,2.71-.85,5.38-1.91,8.01-3.18,2.63-1.27,4.14-2.7,4.96-3.69,1.36-2.04,2.8-4.53,4.32-7.5,1.53-2.96,2.63-5.38,3.31-7.25l1.27-3.05,56.22-129.23c1.86-4.41,5-6.61,9.41-6.61,2.54,0,4.58,1.11,6.11,3.31l52.15,128.97c1.53,3.9,3.01,7.59,4.45,11.07,1.44,3.48,2.75,6.74,3.94,9.79.68,1.7,2.2,3.18,4.58,4.45,2.37,1.27,4.96,2.25,7.76,2.93,2.8.68,4.96,1.02,6.49,1.02.68,0,1.02,1.44,1.02,4.32,0,2.72-.17,4.41-.51,5.09l-15.52-1.02c-4.92-.34-9.16-.64-12.72-.89s-6.45-.29-8.65-.13l-38.41,2.04c-.68-.68-1.02-2.46-1.02-5.34,0-2.71.34-4.07,1.02-4.07,3.73,0,7.54-.8,11.45-2.42,3.9-1.61,5.85-3.77,5.85-6.49,0-.17-.47-1.69-1.4-4.58-.93-2.88-2.59-7.03-4.96-12.47l-7.63-18.57c-.68-.67-1.27-1.02-1.78-1.02-1.7-.17-4.58-.25-8.65-.25h-30.65c-4.32,0-7.93.09-10.81.25-.68,0-1.27.43-1.78,1.27l-8.39,19.33c-2.89,6.79-4.54,11.7-4.96,14.75-.43,3.05,1.06,5.43,4.45,7.12,3.05,1.53,5.72,2.42,8.01,2.67,2.29.25,4.28.38,5.98.38.51.17.76,1.53.76,4.07,0,2.21-.17,3.99-.51,5.34-7.63-.51-13.19-.93-16.66-1.27-3.48-.34-6.07-.55-7.76-.64-1.7-.08-3.52-.04-5.47.13-1.95.17-5.05.38-9.29.64-4.24.25-10.77.64-19.59,1.14ZM936.21,140.35c3.39,0,6.57-.04,9.54-.13,2.97-.08,5.81-.21,8.52-.38l.76-1.27-18.32-45.54-19.84,45.54c0,.68.17,1.02.51,1.02,5.09.51,11.36.76,18.82.76Z"/>
      <path class="cls-1" d="M1042.29,210.81c-.68-.68-1.02-2.12-1.02-4.32,0-3.39.17-5.09.51-5.09,1.36,0,3.35-.29,5.98-.89,2.63-.59,5.04-1.4,7.25-2.42,2.2-1.02,3.47-1.95,3.82-2.8,1.18-4.24,1.78-11.1,1.78-20.61v-97.18c0-10.68-.6-17.3-1.78-19.84-.51-1.36-1.82-2.54-3.94-3.56-2.12-1.02-4.32-1.82-6.61-2.42-2.29-.59-4.11-.89-5.47-.89-.68,0-1.02-1.69-1.02-5.09,0-2.54.17-3.98.51-4.32l35.36,1.53c2.2.17,6.4.09,12.59-.25,6.19-.34,14.37-.76,24.55-1.27.51.68.76,2.46.76,5.34,0,2.72-.34,4.07-1.02,4.07-1.02,0-2.76.34-5.21,1.02-2.46.68-4.83,1.49-7.12,2.42-2.29.93-3.61,1.82-3.94,2.67-1.36,3.73-2.04,10.94-2.04,21.62v36.12l.51.76,30.53.51c2.37,0,6.02-.04,10.94-.13,4.92-.08,11.19-.21,18.82-.38.34-.34.51-.67.51-1.02v-36.89c0-9.16-.6-15.86-1.78-20.1-.34-1.02-1.57-2.04-3.69-3.05-2.12-1.02-4.37-1.86-6.74-2.54-2.38-.67-4.24-1.02-5.6-1.02-.34,0-.64-.67-.89-2.04-.25-1.36-.3-2.84-.13-4.45.17-1.61.42-2.58.76-2.93l37.9,1.53c2.54,0,13.99-.51,34.34-1.53.51,1.53.76,3.05.76,4.58,0,3.22-.43,4.83-1.27,4.83-1.02,0-2.76.34-5.21,1.02-2.46.68-4.79,1.49-7,2.42-2.21.93-3.48,1.82-3.82,2.67-.68,2.54-1.19,5.6-1.53,9.16-.34,3.56-.51,7.72-.51,12.47v95.14c0,4.58.17,8.65.51,12.21.34,3.56.85,6.7,1.53,9.41.34.68,1.57,1.49,3.69,2.42,2.12.93,4.41,1.74,6.87,2.42,2.46.68,4.2,1.02,5.21,1.02.68,0,1.02,1.78,1.02,5.34,0,1.36-.25,2.8-.76,4.32-.68,0-2.29-.09-4.83-.25-2.54-.17-5.94-.43-10.18-.76-4.24-.34-7.97-.59-11.19-.76-3.22-.17-5.94-.25-8.14-.25s-5.21.09-9.03.25c-3.82.17-7.72.38-11.7.64-3.99.25-7.59.51-10.81.76-3.22.25-5.34.38-6.36.38-.34-.51-.6-1.53-.76-3.05-.17-1.53-.13-2.96.13-4.32.25-1.36.55-2.04.89-2.04,1.36,0,3.31-.34,5.85-1.02,2.54-.67,4.92-1.57,7.12-2.67,2.2-1.1,3.47-2.07,3.82-2.93,1.02-3.9,1.53-10.6,1.53-20.1v-42.48l-.51-1.02-29.76-.51c-21.03.17-31.54.43-31.54.76l.51.51v41.72c0,4.41.17,8.39.51,11.96.34,3.56.85,6.7,1.53,9.41.34.68,1.57,1.53,3.69,2.54,2.12,1.02,4.41,1.91,6.87,2.67,2.46.76,4.2,1.14,5.21,1.14.68,0,1.06,1.27,1.14,3.82.08,2.54-.13,4.41-.64,5.6-8.31-.51-15.31-.98-20.99-1.4-5.68-.42-10.81-.64-15.39-.64-5.6,0-11.24.22-16.92.64-5.68.42-12,.89-18.95,1.4Z"/>
    </g>
  </g>
</svg>